<mxfile host="Electron" agent="Mozilla/5.0 (Windows NT 10.0; Win64; x64) AppleWebKit/537.36 (KHTML, like Gecko) draw.io/26.0.4 Chrome/128.0.6613.186 Electron/32.2.5 Safari/537.36" version="26.0.4">
  <diagram name="Page-1" id="LrURdwg1XJNAigIYUBX3">
    <mxGraphModel dx="2800" dy="1802" grid="1" gridSize="10" guides="1" tooltips="1" connect="1" arrows="1" fold="1" page="1" pageScale="1" pageWidth="850" pageHeight="1100" math="0" shadow="0">
      <root>
        <mxCell id="0" />
        <mxCell id="1" parent="0" />
        <mxCell id="U_04j3vn6YRSjikgUyJm-1" value="Computer room" style="rounded=0;whiteSpace=wrap;html=1;" vertex="1" parent="1">
          <mxGeometry x="130" y="220" width="120" height="60" as="geometry" />
        </mxCell>
        <mxCell id="U_04j3vn6YRSjikgUyJm-2" value="Computer" style="rounded=0;whiteSpace=wrap;html=1;" vertex="1" parent="1">
          <mxGeometry x="520" y="220" width="120" height="60" as="geometry" />
        </mxCell>
        <mxCell id="U_04j3vn6YRSjikgUyJm-3" value="Subject" style="rounded=0;whiteSpace=wrap;html=1;" vertex="1" parent="1">
          <mxGeometry x="520" y="465" width="120" height="60" as="geometry" />
        </mxCell>
        <mxCell id="U_04j3vn6YRSjikgUyJm-4" value="cÃ³" style="rhombus;whiteSpace=wrap;html=1;" vertex="1" parent="1">
          <mxGeometry x="350" y="210" width="80" height="80" as="geometry" />
        </mxCell>
        <mxCell id="U_04j3vn6YRSjikgUyJm-5" value="roomId" style="ellipse;whiteSpace=wrap;html=1;" vertex="1" parent="1">
          <mxGeometry x="-30" y="80" width="120" height="70" as="geometry" />
        </mxCell>
        <mxCell id="U_04j3vn6YRSjikgUyJm-6" value="" style="endArrow=none;html=1;rounded=0;entryX=0;entryY=0.5;entryDx=0;entryDy=0;exitX=1;exitY=0.5;exitDx=0;exitDy=0;" edge="1" parent="1" source="U_04j3vn6YRSjikgUyJm-1" target="U_04j3vn6YRSjikgUyJm-4">
          <mxGeometry width="50" height="50" relative="1" as="geometry">
            <mxPoint x="280" y="280" as="sourcePoint" />
            <mxPoint x="330" y="230" as="targetPoint" />
          </mxGeometry>
        </mxCell>
        <mxCell id="U_04j3vn6YRSjikgUyJm-7" value="1" style="edgeLabel;html=1;align=center;verticalAlign=middle;resizable=0;points=[];" vertex="1" connectable="0" parent="U_04j3vn6YRSjikgUyJm-6">
          <mxGeometry x="0.1" y="-1" relative="1" as="geometry">
            <mxPoint as="offset" />
          </mxGeometry>
        </mxCell>
        <mxCell id="U_04j3vn6YRSjikgUyJm-8" value="" style="endArrow=classic;html=1;rounded=0;entryX=0;entryY=0.5;entryDx=0;entryDy=0;exitX=1;exitY=0.5;exitDx=0;exitDy=0;" edge="1" parent="1" source="U_04j3vn6YRSjikgUyJm-4" target="U_04j3vn6YRSjikgUyJm-2">
          <mxGeometry width="50" height="50" relative="1" as="geometry">
            <mxPoint x="410" y="310" as="sourcePoint" />
            <mxPoint x="460" y="260" as="targetPoint" />
          </mxGeometry>
        </mxCell>
        <mxCell id="U_04j3vn6YRSjikgUyJm-9" value="N" style="edgeLabel;html=1;align=center;verticalAlign=middle;resizable=0;points=[];" vertex="1" connectable="0" parent="U_04j3vn6YRSjikgUyJm-8">
          <mxGeometry x="-0.0444" relative="1" as="geometry">
            <mxPoint as="offset" />
          </mxGeometry>
        </mxCell>
        <mxCell id="U_04j3vn6YRSjikgUyJm-10" value="" style="endArrow=none;html=1;rounded=0;entryX=0;entryY=0.5;entryDx=0;entryDy=0;exitX=1;exitY=0.5;exitDx=0;exitDy=0;" edge="1" parent="1" source="U_04j3vn6YRSjikgUyJm-2" target="U_04j3vn6YRSjikgUyJm-21">
          <mxGeometry width="50" height="50" relative="1" as="geometry">
            <mxPoint x="630" y="360" as="sourcePoint" />
            <mxPoint x="680" y="310" as="targetPoint" />
          </mxGeometry>
        </mxCell>
        <mxCell id="U_04j3vn6YRSjikgUyJm-11" value="roomName" style="ellipse;whiteSpace=wrap;html=1;" vertex="1" parent="1">
          <mxGeometry x="-90" y="200" width="120" height="70" as="geometry" />
        </mxCell>
        <mxCell id="U_04j3vn6YRSjikgUyJm-12" value="manager" style="ellipse;whiteSpace=wrap;html=1;" vertex="1" parent="1">
          <mxGeometry x="-60" y="300" width="120" height="70" as="geometry" />
        </mxCell>
        <mxCell id="U_04j3vn6YRSjikgUyJm-13" value="" style="endArrow=none;html=1;rounded=0;entryX=0;entryY=0.5;entryDx=0;entryDy=0;exitX=1;exitY=0.5;exitDx=0;exitDy=0;" edge="1" parent="1" source="U_04j3vn6YRSjikgUyJm-5" target="U_04j3vn6YRSjikgUyJm-1">
          <mxGeometry width="50" height="50" relative="1" as="geometry">
            <mxPoint x="110" y="180" as="sourcePoint" />
            <mxPoint x="160" y="130" as="targetPoint" />
          </mxGeometry>
        </mxCell>
        <mxCell id="U_04j3vn6YRSjikgUyJm-14" value="" style="endArrow=none;html=1;rounded=0;exitX=1;exitY=0.5;exitDx=0;exitDy=0;entryX=0;entryY=0.5;entryDx=0;entryDy=0;" edge="1" parent="1" source="U_04j3vn6YRSjikgUyJm-11" target="U_04j3vn6YRSjikgUyJm-1">
          <mxGeometry width="50" height="50" relative="1" as="geometry">
            <mxPoint x="70" y="240" as="sourcePoint" />
            <mxPoint x="120" y="190" as="targetPoint" />
          </mxGeometry>
        </mxCell>
        <mxCell id="U_04j3vn6YRSjikgUyJm-15" value="" style="endArrow=none;html=1;rounded=0;entryX=0;entryY=0.5;entryDx=0;entryDy=0;exitX=1;exitY=0.5;exitDx=0;exitDy=0;" edge="1" parent="1" source="U_04j3vn6YRSjikgUyJm-2" target="U_04j3vn6YRSjikgUyJm-17">
          <mxGeometry width="50" height="50" relative="1" as="geometry">
            <mxPoint x="555" y="150" as="sourcePoint" />
            <mxPoint x="605" y="100" as="targetPoint" />
          </mxGeometry>
        </mxCell>
        <mxCell id="U_04j3vn6YRSjikgUyJm-16" value="" style="endArrow=none;html=1;rounded=0;entryX=0;entryY=0.5;entryDx=0;entryDy=0;exitX=1;exitY=0.5;exitDx=0;exitDy=0;" edge="1" parent="1" source="U_04j3vn6YRSjikgUyJm-12" target="U_04j3vn6YRSjikgUyJm-1">
          <mxGeometry width="50" height="50" relative="1" as="geometry">
            <mxPoint x="80" y="380" as="sourcePoint" />
            <mxPoint x="130" y="340" as="targetPoint" />
          </mxGeometry>
        </mxCell>
        <mxCell id="U_04j3vn6YRSjikgUyJm-17" value="computerId" style="ellipse;whiteSpace=wrap;html=1;" vertex="1" parent="1">
          <mxGeometry x="730" y="-20" width="120" height="70" as="geometry" />
        </mxCell>
        <mxCell id="U_04j3vn6YRSjikgUyJm-18" value="CPU" style="ellipse;whiteSpace=wrap;html=1;" vertex="1" parent="1">
          <mxGeometry x="750" y="60" width="120" height="70" as="geometry" />
        </mxCell>
        <mxCell id="U_04j3vn6YRSjikgUyJm-19" value="roomId" style="ellipse;whiteSpace=wrap;html=1;" vertex="1" parent="1">
          <mxGeometry x="1440" y="335" width="120" height="70" as="geometry" />
        </mxCell>
        <mxCell id="U_04j3vn6YRSjikgUyJm-20" value="RAM" style="ellipse;whiteSpace=wrap;html=1;" vertex="1" parent="1">
          <mxGeometry x="780" y="140" width="120" height="70" as="geometry" />
        </mxCell>
        <mxCell id="U_04j3vn6YRSjikgUyJm-21" value="SSD" style="ellipse;whiteSpace=wrap;html=1;" vertex="1" parent="1">
          <mxGeometry x="800" y="220" width="120" height="70" as="geometry" />
        </mxCell>
        <mxCell id="U_04j3vn6YRSjikgUyJm-22" value="" style="endArrow=none;html=1;rounded=0;entryX=0;entryY=0.5;entryDx=0;entryDy=0;exitX=1;exitY=0.5;exitDx=0;exitDy=0;" edge="1" parent="1" source="U_04j3vn6YRSjikgUyJm-2" target="U_04j3vn6YRSjikgUyJm-20">
          <mxGeometry width="50" height="50" relative="1" as="geometry">
            <mxPoint x="480" y="380" as="sourcePoint" />
            <mxPoint x="530" y="330" as="targetPoint" />
          </mxGeometry>
        </mxCell>
        <mxCell id="U_04j3vn6YRSjikgUyJm-23" value="" style="endArrow=none;html=1;rounded=0;entryX=0;entryY=0.5;entryDx=0;entryDy=0;exitX=1;exitY=0.5;exitDx=0;exitDy=0;" edge="1" parent="1" source="U_04j3vn6YRSjikgUyJm-2" target="U_04j3vn6YRSjikgUyJm-18">
          <mxGeometry width="50" height="50" relative="1" as="geometry">
            <mxPoint x="540" y="410" as="sourcePoint" />
            <mxPoint x="590" y="360" as="targetPoint" />
          </mxGeometry>
        </mxCell>
        <mxCell id="U_04j3vn6YRSjikgUyJm-24" value="subjectId" style="ellipse;whiteSpace=wrap;html=1;" vertex="1" parent="1">
          <mxGeometry x="730" y="410" width="120" height="70" as="geometry" />
        </mxCell>
        <mxCell id="U_04j3vn6YRSjikgUyJm-25" value="duration" style="ellipse;whiteSpace=wrap;html=1;" vertex="1" parent="1">
          <mxGeometry x="750" y="590" width="120" height="70" as="geometry" />
        </mxCell>
        <mxCell id="U_04j3vn6YRSjikgUyJm-26" value="subjectName" style="ellipse;whiteSpace=wrap;html=1;" vertex="1" parent="1">
          <mxGeometry x="750" y="490" width="120" height="70" as="geometry" />
        </mxCell>
        <mxCell id="U_04j3vn6YRSjikgUyJm-27" value="" style="rounded=0;whiteSpace=wrap;html=1;" vertex="1" parent="1">
          <mxGeometry x="130" y="465" width="120" height="60" as="geometry" />
        </mxCell>
        <mxCell id="U_04j3vn6YRSjikgUyJm-28" value="Register" style="rounded=0;whiteSpace=wrap;html=1;" vertex="1" parent="1">
          <mxGeometry x="145" y="470" width="90" height="50" as="geometry" />
        </mxCell>
        <mxCell id="U_04j3vn6YRSjikgUyJm-29" value="dateStart" style="ellipse;whiteSpace=wrap;html=1;" vertex="1" parent="1">
          <mxGeometry x="-120" y="520" width="120" height="70" as="geometry" />
        </mxCell>
        <mxCell id="U_04j3vn6YRSjikgUyJm-30" value="" style="ellipse;whiteSpace=wrap;html=1;" vertex="1" parent="1">
          <mxGeometry x="-1080" y="405" width="120" height="70" as="geometry" />
        </mxCell>
        <mxCell id="U_04j3vn6YRSjikgUyJm-31" value="roomId" style="ellipse;whiteSpace=wrap;html=1;" vertex="1" parent="1">
          <mxGeometry x="-120" y="405" width="120" height="70" as="geometry" />
        </mxCell>
        <mxCell id="U_04j3vn6YRSjikgUyJm-32" value="" style="endArrow=none;html=1;rounded=0;entryX=0;entryY=0.5;entryDx=0;entryDy=0;exitX=1;exitY=0.5;exitDx=0;exitDy=0;" edge="1" parent="1" source="U_04j3vn6YRSjikgUyJm-3" target="U_04j3vn6YRSjikgUyJm-24">
          <mxGeometry width="50" height="50" relative="1" as="geometry">
            <mxPoint x="380" y="520" as="sourcePoint" />
            <mxPoint x="430" y="470" as="targetPoint" />
          </mxGeometry>
        </mxCell>
        <mxCell id="U_04j3vn6YRSjikgUyJm-33" value="" style="endArrow=none;html=1;rounded=0;entryX=-0.008;entryY=0.614;entryDx=0;entryDy=0;entryPerimeter=0;exitX=1;exitY=0.5;exitDx=0;exitDy=0;" edge="1" parent="1" source="U_04j3vn6YRSjikgUyJm-3" target="U_04j3vn6YRSjikgUyJm-26">
          <mxGeometry width="50" height="50" relative="1" as="geometry">
            <mxPoint x="590" y="570" as="sourcePoint" />
            <mxPoint x="640" y="520" as="targetPoint" />
          </mxGeometry>
        </mxCell>
        <mxCell id="U_04j3vn6YRSjikgUyJm-34" value="" style="endArrow=none;html=1;rounded=0;entryX=0;entryY=0.5;entryDx=0;entryDy=0;exitX=1;exitY=0.5;exitDx=0;exitDy=0;" edge="1" parent="1" source="U_04j3vn6YRSjikgUyJm-3" target="U_04j3vn6YRSjikgUyJm-25">
          <mxGeometry width="50" height="50" relative="1" as="geometry">
            <mxPoint x="240" y="570" as="sourcePoint" />
            <mxPoint x="290" y="520" as="targetPoint" />
          </mxGeometry>
        </mxCell>
        <mxCell id="U_04j3vn6YRSjikgUyJm-35" value="" style="endArrow=none;html=1;rounded=0;exitX=1;exitY=0.5;exitDx=0;exitDy=0;entryX=0;entryY=0.5;entryDx=0;entryDy=0;" edge="1" parent="1" source="U_04j3vn6YRSjikgUyJm-31" target="U_04j3vn6YRSjikgUyJm-27">
          <mxGeometry width="50" height="50" relative="1" as="geometry">
            <mxPoint x="240" y="510" as="sourcePoint" />
            <mxPoint x="290" y="460" as="targetPoint" />
          </mxGeometry>
        </mxCell>
        <mxCell id="U_04j3vn6YRSjikgUyJm-36" value="" style="endArrow=none;html=1;rounded=0;entryX=0;entryY=0.5;entryDx=0;entryDy=0;exitX=1;exitY=0.5;exitDx=0;exitDy=0;" edge="1" parent="1" source="U_04j3vn6YRSjikgUyJm-29" target="U_04j3vn6YRSjikgUyJm-27">
          <mxGeometry width="50" height="50" relative="1" as="geometry">
            <mxPoint x="-80" y="660" as="sourcePoint" />
            <mxPoint x="-30" y="610" as="targetPoint" />
          </mxGeometry>
        </mxCell>
        <mxCell id="U_04j3vn6YRSjikgUyJm-37" value="subjectId" style="ellipse;whiteSpace=wrap;html=1;" vertex="1" parent="1">
          <mxGeometry x="-50" y="630" width="120" height="70" as="geometry" />
        </mxCell>
        <mxCell id="U_04j3vn6YRSjikgUyJm-38" value="" style="endArrow=none;html=1;rounded=0;entryX=0;entryY=0.5;entryDx=0;entryDy=0;exitX=1;exitY=0.5;exitDx=0;exitDy=0;" edge="1" parent="1" source="U_04j3vn6YRSjikgUyJm-37" target="U_04j3vn6YRSjikgUyJm-27">
          <mxGeometry width="50" height="50" relative="1" as="geometry">
            <mxPoint x="420" y="530" as="sourcePoint" />
            <mxPoint x="470" y="480" as="targetPoint" />
          </mxGeometry>
        </mxCell>
        <mxCell id="U_04j3vn6YRSjikgUyJm-39" value="roomId" style="ellipse;whiteSpace=wrap;html=1;" vertex="1" parent="1">
          <mxGeometry x="790" y="320" width="120" height="70" as="geometry" />
        </mxCell>
        <mxCell id="U_04j3vn6YRSjikgUyJm-40" value="" style="endArrow=none;html=1;rounded=0;entryX=0;entryY=0.5;entryDx=0;entryDy=0;exitX=1;exitY=0.5;exitDx=0;exitDy=0;" edge="1" parent="1" source="U_04j3vn6YRSjikgUyJm-2" target="U_04j3vn6YRSjikgUyJm-39">
          <mxGeometry width="50" height="50" relative="1" as="geometry">
            <mxPoint x="640" y="300" as="sourcePoint" />
            <mxPoint x="800" y="305" as="targetPoint" />
          </mxGeometry>
        </mxCell>
        <mxCell id="U_04j3vn6YRSjikgUyJm-41" value="" style="endArrow=classic;html=1;rounded=0;exitX=0;exitY=0.5;exitDx=0;exitDy=0;entryX=1;entryY=0.5;entryDx=0;entryDy=0;" edge="1" parent="1" source="U_04j3vn6YRSjikgUyJm-3" target="U_04j3vn6YRSjikgUyJm-27">
          <mxGeometry width="50" height="50" relative="1" as="geometry">
            <mxPoint x="430" y="390" as="sourcePoint" />
            <mxPoint x="480" y="340" as="targetPoint" />
          </mxGeometry>
        </mxCell>
        <mxCell id="U_04j3vn6YRSjikgUyJm-42" value="1" style="edgeLabel;html=1;align=center;verticalAlign=middle;resizable=0;points=[];" vertex="1" connectable="0" parent="U_04j3vn6YRSjikgUyJm-41">
          <mxGeometry x="-0.4796" y="2" relative="1" as="geometry">
            <mxPoint as="offset" />
          </mxGeometry>
        </mxCell>
        <mxCell id="U_04j3vn6YRSjikgUyJm-43" value="N" style="edgeLabel;html=1;align=center;verticalAlign=middle;resizable=0;points=[];" vertex="1" connectable="0" parent="U_04j3vn6YRSjikgUyJm-41">
          <mxGeometry x="0.5574" y="-2" relative="1" as="geometry">
            <mxPoint as="offset" />
          </mxGeometry>
        </mxCell>
        <mxCell id="U_04j3vn6YRSjikgUyJm-44" value="" style="endArrow=classic;html=1;rounded=0;entryX=0.5;entryY=0;entryDx=0;entryDy=0;exitX=0.5;exitY=1;exitDx=0;exitDy=0;" edge="1" parent="1" source="U_04j3vn6YRSjikgUyJm-1" target="U_04j3vn6YRSjikgUyJm-27">
          <mxGeometry width="50" height="50" relative="1" as="geometry">
            <mxPoint x="430" y="390" as="sourcePoint" />
            <mxPoint x="480" y="340" as="targetPoint" />
          </mxGeometry>
        </mxCell>
        <mxCell id="U_04j3vn6YRSjikgUyJm-45" value="1" style="edgeLabel;html=1;align=center;verticalAlign=middle;resizable=0;points=[];" vertex="1" connectable="0" parent="U_04j3vn6YRSjikgUyJm-44">
          <mxGeometry x="-0.6261" y="2" relative="1" as="geometry">
            <mxPoint as="offset" />
          </mxGeometry>
        </mxCell>
        <mxCell id="U_04j3vn6YRSjikgUyJm-46" value="N" style="edgeLabel;html=1;align=center;verticalAlign=middle;resizable=0;points=[];" vertex="1" connectable="0" parent="U_04j3vn6YRSjikgUyJm-44">
          <mxGeometry x="0.3787" relative="1" as="geometry">
            <mxPoint as="offset" />
          </mxGeometry>
        </mxCell>
      </root>
    </mxGraphModel>
  </diagram>
</mxfile>
